<?xml version="1.0" encoding="utf-8"?>
<!-- Generator: Adobe Illustrator 20.1.0, SVG Export Plug-In . SVG Version: 6.00 Build 0)  -->
<svg version="1.1" id="Layer_1" xmlns="http://www.w3.org/2000/svg" xmlns:xlink="http://www.w3.org/1999/xlink" x="0px" y="0px"
	 viewBox="0 0 436.1 436.1" style="enable-background:new 0 0 436.1 436.1;" xml:space="preserve">
<style type="text/css">
	.st0{fill:#F1F1F2;}
</style>
<title>Artboard 2</title>
<circle class="st0" cx="218" cy="218" r="218"/>
<g>
	<path d="M218,203.5c41.9,0,73.6-31.5,73.6-73.4V121c0-9.4-7.6-17-17-17H161.5c-9.4,0-17,7.6-17,17v9.2
		C144.5,172,176,203.5,218,203.5z M218,175.9c-26.6,0-45.3-18.2-46-44.4H264C263.3,157.8,244.6,175.9,218,175.9L218,175.9z"/>
	<path d="M287.5,308.5l-55.7-55.6v-11.2h46c7.6,0,13.8-6.2,13.8-13.8s-6.2-13.8-13.8-13.8H158.2c-7.6,0-13.8,6.2-13.8,13.8
		s6.2,13.8,13.8,13.8h46v11.2l-55.7,55.6c-5.3,5.3-5.5,13.9-0.3,19.4c2.6,2.7,6.1,4.2,9.8,4.3c3.7,0.1,7.3-1.4,9.9-4l50-50l50,50.1
		c2.6,2.6,6.1,4,9.7,4h0.3c7.6-0.2,13.7-6.5,13.5-14.1C291.5,314.5,290.1,311.1,287.5,308.5L287.5,308.5z"/>
</g>
</svg>
